<svg width="177" height="62" viewBox="0 0 177 62" fill="none" xmlns="http://www.w3.org/2000/svg">
<g filter="url(#filter0_d_231_3068)">
<path d="M37.135 37H33.247L32.263 34.288H25.399L24.391 37H20.503L26.695 20.992H30.967L37.135 37ZM31.327 31.288L28.831 24.4L26.335 31.288H31.327ZM49.5813 37H46.5093V35.512C45.5973 36.664 44.3253 37.288 42.9333 37.288C40.0053 37.288 37.7973 35.08 37.7973 31.216C37.7973 27.424 39.9813 25.12 42.9333 25.12C44.3013 25.12 45.5973 25.72 46.5093 26.896V20.992H49.5813V37ZM43.8693 34.576C44.9013 34.576 46.0053 34.024 46.5093 33.256V29.152C46.0053 28.384 44.9013 27.832 43.8693 27.832C42.1413 27.832 40.9413 29.2 40.9413 31.216C40.9413 33.208 42.1413 34.576 43.8693 34.576ZM70.0518 37H66.9798V29.68C66.9798 28.6 66.4998 27.832 65.2518 27.832C64.1718 27.832 63.2838 28.552 62.8518 29.176V37H59.7798V29.68C59.7798 28.6 59.2998 27.832 58.0518 27.832C56.9958 27.832 56.1078 28.552 55.6518 29.2V37H52.6038V25.408H55.6518V26.92C56.1318 26.224 57.6678 25.12 59.4438 25.12C61.1478 25.12 62.2278 25.912 62.6598 27.232C63.3318 26.176 64.8678 25.12 66.6438 25.12C68.7798 25.12 70.0518 26.248 70.0518 28.624V37ZM74.5533 24.16C73.5693 24.16 72.7293 23.344 72.7293 22.336C72.7293 21.328 73.5693 20.536 74.5533 20.536C75.5613 20.536 76.3773 21.328 76.3773 22.336C76.3773 23.344 75.5613 24.16 74.5533 24.16ZM76.0893 37H73.0413V25.408H76.0893V37ZM89.9836 37H86.9356V29.992C86.9356 28.384 86.0956 27.832 84.7996 27.832C83.5996 27.832 82.6636 28.504 82.1596 29.2V37H79.1116V25.408H82.1596V26.92C82.9036 26.032 84.3196 25.12 86.2156 25.12C88.7596 25.12 89.9836 26.56 89.9836 28.816V37ZM109.399 37H99.2227V20.992H102.631V34H109.399V37ZM116.831 37.288C113.015 37.288 110.711 34.504 110.711 31.192C110.711 27.904 113.015 25.12 116.831 25.12C120.671 25.12 122.975 27.904 122.975 31.192C122.975 34.504 120.671 37.288 116.831 37.288ZM116.831 34.576C118.727 34.576 119.807 33.016 119.807 31.192C119.807 29.392 118.727 27.832 116.831 27.832C114.935 27.832 113.879 29.392 113.879 31.192C113.879 33.016 114.935 34.576 116.831 34.576ZM129.989 41.704C127.997 41.704 126.461 41.248 124.997 39.976L126.365 37.768C127.301 38.8 128.525 39.208 129.989 39.208C131.453 39.208 133.181 38.56 133.181 36.28V35.104C132.269 36.256 131.021 36.928 129.605 36.928C126.701 36.928 124.493 34.888 124.493 31.024C124.493 27.232 126.677 25.12 129.605 25.12C130.997 25.12 132.245 25.72 133.181 26.896V25.408H136.253V36.208C136.253 40.624 132.845 41.704 129.989 41.704ZM130.565 34.216C131.573 34.216 132.677 33.64 133.181 32.896V29.152C132.677 28.384 131.573 27.832 130.565 27.832C128.837 27.832 127.637 29.032 127.637 31.024C127.637 33.016 128.837 34.216 130.565 34.216ZM140.788 24.16C139.804 24.16 138.964 23.344 138.964 22.336C138.964 21.328 139.804 20.536 140.788 20.536C141.796 20.536 142.612 21.328 142.612 22.336C142.612 23.344 141.796 24.16 140.788 24.16ZM142.324 37H139.276V25.408H142.324V37ZM156.218 37H153.17V29.992C153.17 28.384 152.33 27.832 151.034 27.832C149.834 27.832 148.898 28.504 148.394 29.2V37H145.346V25.408H148.394V26.92C149.138 26.032 150.554 25.12 152.45 25.12C154.994 25.12 156.218 26.56 156.218 28.816V37Z" fill="white"/>
</g>
<defs>
<filter id="filter0_d_231_3068" x="0.50293" y="0.535156" width="175.715" height="61.168" filterUnits="userSpaceOnUse" color-interpolation-filters="sRGB">
<feFlood flood-opacity="0" result="BackgroundImageFix"/>
<feColorMatrix in="SourceAlpha" type="matrix" values="0 0 0 0 0 0 0 0 0 0 0 0 0 0 0 0 0 0 127 0" result="hardAlpha"/>
<feOffset/>
<feGaussianBlur stdDeviation="10"/>
<feComposite in2="hardAlpha" operator="out"/>
<feColorMatrix type="matrix" values="0 0 0 0 0.0470588 0 0 0 0 0.482353 0 0 0 0 0.803922 0 0 0 0.1 0"/>
<feBlend mode="normal" in2="BackgroundImageFix" result="effect1_dropShadow_231_3068"/>
<feBlend mode="normal" in="SourceGraphic" in2="effect1_dropShadow_231_3068" result="shape"/>
</filter>
</defs>
</svg>
