<svg width="40" height="40" viewBox="0 0 40 40" fill="none" xmlns="http://www.w3.org/2000/svg">
<mask id="mask0_547_8410" style="mask-type:alpha" maskUnits="userSpaceOnUse" x="6" y="5" width="28" height="29">
<path d="M20.0004 27.5347C15.8445 27.5347 12.4619 24.153 12.4619 19.9959C12.4619 15.8387 15.8445 12.457 20.0004 12.457C24.1562 12.457 27.5388 15.8387 27.5388 19.9959C27.5388 24.153 24.1562 27.5347 20.0004 27.5347ZM20.0004 14.611C17.0313 14.611 14.6158 17.0266 14.6158 19.9959C14.6158 22.9651 17.0313 25.3808 20.0004 25.3808C22.9695 25.3808 25.385 22.9651 25.385 19.9959C25.385 17.0266 22.9695 14.611 20.0004 14.611Z" fill="white"/>
<path d="M28.0763 13.5317C28.9685 13.5317 29.6917 12.8084 29.6917 11.9162C29.6917 11.0241 28.9685 10.3008 28.0763 10.3008C27.1842 10.3008 26.4609 11.0241 26.4609 11.9162C26.4609 12.8084 27.1842 13.5317 28.0763 13.5317Z" fill="white"/>
<path d="M26.4615 33.9975H13.5385C9.38262 33.9975 6 30.6158 6 26.4587V13.5349C6 9.3778 9.38262 5.99609 13.5385 5.99609H26.4615C30.6174 5.99609 34 9.3778 34 13.5349V26.4587C34 30.6158 30.6174 33.9975 26.4615 33.9975ZM13.5385 8.15005C10.5694 8.15005 8.15385 10.5657 8.15385 13.5349V26.4587C8.15385 29.4279 10.5694 31.8436 13.5385 31.8436H26.4615C29.4306 31.8436 31.8462 29.4279 31.8462 26.4587V13.5349C31.8462 10.5657 29.4306 8.15005 26.4615 8.15005H13.5385Z" fill="white"/>
</mask>
<g mask="url(#mask0_547_8410)">
<path d="M19.9936 39.99C8.96248 39.9842 0.0184806 31.0261 0.0119118 19.995C0.00534061 8.95975 8.96886 0.0184405 20.0041 0.0118721C31.0308 0.00530873 39.9789 8.96827 39.9789 19.995C39.9789 31.0259 31.0244 39.9958 19.9936 39.99Z" fill="url(#paint0_radial_547_8410)"/>
<path d="M20.0106 39.99C8.96642 39.9958 1.1577e-08 31.0444 7.45845e-09 20.0003V20.0003C3.3399e-09 8.95613 8.96642 0.00472985 20.0106 0.0105557V0.0105557C31.0464 0.0163772 40 8.96437 40 20.0003V20.0003C40 31.0362 31.0464 39.9842 20.0106 39.99V39.99Z" fill="url(#paint1_radial_547_8410)"/>
</g>
<defs>
<radialGradient id="paint0_radial_547_8410" cx="0" cy="0" r="1" gradientUnits="userSpaceOnUse" gradientTransform="translate(14.8699 40.0294) scale(49.8614 49.8621)">
<stop stop-color="#FFDD55"/>
<stop offset="0.328" stop-color="#FF543F"/>
<stop offset="0.348" stop-color="#FC5245"/>
<stop offset="0.504" stop-color="#E64771"/>
<stop offset="0.643" stop-color="#D53E91"/>
<stop offset="0.761" stop-color="#CC39A4"/>
<stop offset="0.841" stop-color="#C837AB"/>
</radialGradient>
<radialGradient id="paint1_radial_547_8410" cx="0" cy="0" r="1" gradientUnits="userSpaceOnUse" gradientTransform="translate(6.42238 -0.499403) scale(33.143 22.0602)">
<stop stop-color="#4168C9"/>
<stop offset="0.999" stop-color="#4168C9" stop-opacity="0"/>
</radialGradient>
</defs>
</svg>
