<svg width="40" height="40" viewBox="0 0 40 40" fill="none" xmlns="http://www.w3.org/2000/svg">
<rect width="40" height="39.9996" rx="3.99998" fill="#0468B1" fill-opacity="0.2"/>
<path d="M6.90892 16.148H11.5582C12.5708 16.148 13.3282 16.3888 13.8304 16.8704C14.3367 17.352 14.5898 18.0373 14.5898 18.9264C14.5898 19.8403 14.314 20.5544 13.7625 21.069C13.215 21.5835 12.3774 21.8407 11.2495 21.8407H9.71826V25.1996H6.90892V16.148ZM9.71826 20.007H10.4036C10.9428 20.007 11.3215 19.9143 11.5397 19.7291C11.7579 19.5398 11.8669 19.299 11.8669 19.0067C11.8669 18.7227 11.7723 18.4819 11.5829 18.2843C11.3936 18.0867 11.0375 17.9879 10.5148 17.9879H9.71826V20.007ZM16.0964 16.148H20.2517C21.0709 16.148 21.7315 16.2591 22.2337 16.4814C22.74 16.7037 23.1578 17.0227 23.4871 17.4384C23.8164 17.8542 24.0551 18.3378 24.2033 18.8894C24.3515 19.441 24.4256 20.0255 24.4256 20.6429C24.4256 21.6102 24.3145 22.3615 24.0922 22.8966C23.874 23.4276 23.5694 23.8742 23.1784 24.2364C22.7873 24.5945 22.3675 24.8333 21.9188 24.9526C21.3055 25.1173 20.7498 25.1996 20.2517 25.1996H16.0964V16.148ZM18.8934 18.1979V23.1435H19.5787C20.1632 23.1435 20.579 23.0797 20.8259 22.9521C21.0729 22.8204 21.2664 22.594 21.4063 22.273C21.5463 21.9478 21.6163 21.4229 21.6163 20.6985C21.6163 19.7394 21.4598 19.0829 21.147 18.7289C20.8342 18.3749 20.3155 18.1979 19.5911 18.1979H18.8934ZM25.9136 16.148H32.8289V18.0929H28.723V19.6735H32.23V21.5012H28.723V25.1996H25.9136V16.148Z" fill="#0468B1"/>
</svg>
