<svg width="20" height="20" viewBox="0 0 20 20" fill="none" xmlns="http://www.w3.org/2000/svg">
<path d="M18.3548 5.9475C18.8227 6.9123 19.1201 7.95087 19.2336 9.01716L15.2059 9.4459C15.1419 8.84472 14.9743 8.25917 14.7104 7.71521L18.3548 5.9475Z" fill="#C52035"/>
<path d="M16.3345 3.21042C17.1186 3.94192 17.77 4.8037 18.2599 5.75755L14.657 7.60812C14.3808 7.07034 14.0135 6.58446 13.5714 6.17204L16.3345 3.21042Z" fill="#229C48"/>
<path d="M13.446 1.3774C14.4417 1.77534 15.361 2.34274 16.1631 3.05445L13.4748 6.0841C13.0226 5.68284 12.5043 5.36293 11.9429 5.13858L13.446 1.3774Z" fill="#D3A129"/>
<path d="M10.0995 0.714847C11.1717 0.726332 12.2339 0.923455 13.2388 1.29747L11.8261 5.09351C11.2595 4.88264 10.6606 4.7715 10.0561 4.76503L10.0995 0.714847Z" fill="#EB1D2F"/>
<path d="M6.73952 1.30556C7.74356 0.92904 8.80522 0.729276 9.87744 0.715123L9.9309 4.76518C9.32638 4.77316 8.72781 4.88579 8.16173 5.09807L6.73952 1.30556Z" fill="#1D3668"/>
<path d="M3.81965 3.0698C4.61996 2.3561 5.53783 1.78641 6.53258 1.386L8.04505 5.14342C7.48421 5.36918 6.96671 5.69037 6.5155 6.09276L3.81965 3.0698Z" fill="#0A568C"/>
<path d="M1.73398 5.76945C2.22252 4.8149 2.87272 3.95218 3.65573 3.21955L6.42308 6.17719C5.98161 6.59025 5.61503 7.07665 5.33958 7.61483L1.73398 5.76945Z" fill="#5BBB47"/>
<path d="M0.763995 9.04013C0.874848 7.97356 1.1696 6.93426 1.63519 5.96829L5.28389 7.72694C5.02139 8.27155 4.85521 8.85752 4.79271 9.45885L0.763995 9.04013Z" fill="#117DBE"/>
<path d="M1.04063 12.4404C0.758831 11.4057 0.658363 10.3301 0.743684 9.26122L4.78125 9.58351C4.73315 10.1862 4.78979 10.7926 4.94868 11.3759L1.04063 12.4404Z" fill="#487840"/>
<path d="M2.52656 15.5112C1.89013 14.6482 1.408 13.6815 1.10154 12.6539L4.98302 11.4963C5.1558 12.0757 5.42763 12.6207 5.78644 13.1073L2.52656 15.5112Z" fill="#D18F2A"/>
<path d="M5.0212 17.8382C4.11605 17.2633 3.31733 16.5359 2.66046 15.6883L5.86194 13.2071C6.23229 13.685 6.68261 14.0951 7.19293 14.4193L5.0212 17.8382Z" fill="#F99E28"/>
<path d="M8.18785 19.1073C7.13615 18.898 6.12865 18.5082 5.21002 17.955L7.29939 14.4851C7.81732 14.797 8.38535 15.0168 8.9783 15.1348L8.18785 19.1073Z" fill="#E20F85"/>
<path d="M11.5991 19.1471C10.5428 19.3318 9.4625 19.3321 8.40611 19.148L9.10136 15.1577C9.69696 15.2615 10.306 15.2613 10.9016 15.1572L11.5991 19.1471Z" fill="#F36D28"/>
<path d="M14.7945 17.9523C13.8762 18.506 12.8689 18.8964 11.8173 19.1063L11.0246 15.1342C11.6175 15.0159 12.1854 14.7957 12.7032 14.4836L14.7945 17.9523Z" fill="#8F1839"/>
<path d="M17.3428 15.6842C16.6864 16.5321 15.8881 17.2599 14.9833 17.8354L12.8096 14.4177C13.3197 14.0932 13.7698 13.6829 14.1399 13.2048L17.3428 15.6842Z" fill="#FDB713"/>
<path d="M18.9 12.6488C18.5941 13.6766 18.1125 14.6436 17.4766 15.507L14.2153 13.1049C14.5739 12.6181 14.8454 12.0729 15.0178 11.4934L18.9 12.6488Z" fill="#09AEDA"/>
<path d="M19.2559 9.25597C19.3418 10.3248 19.242 11.4005 18.9608 12.4353L15.0521 11.3731C15.2107 10.7896 15.267 10.1832 15.2185 9.58054L19.2559 9.25597Z" fill="#EF402B"/>
</svg>
